<svg width="14" height="24" viewBox="0 0 14 24" fill="none" xmlns="http://www.w3.org/2000/svg">
<path d="M12.772 22.1368C12.8734 22.2381 12.9538 22.3584 13.0086 22.4909C13.0635 22.6233 13.0917 22.7652 13.0917 22.9085C13.0917 23.0519 13.0635 23.1938 13.0086 23.3262C12.9538 23.4586 12.8734 23.579 12.772 23.6803C12.6707 23.7817 12.5504 23.8621 12.4179 23.9169C12.2855 23.9718 12.1436 24 12.0002 24C11.8569 24 11.715 23.9718 11.5826 23.9169C11.4501 23.8621 11.3298 23.7817 11.2285 23.6803L0.319932 12.7718C0.218509 12.6705 0.138049 12.5502 0.0831527 12.4177C0.0282563 12.2853 0 12.1434 0 12C0 11.8566 0.0282563 11.7147 0.0831527 11.5823C0.138049 11.4498 0.218509 11.3295 0.319932 11.2282L11.2285 0.319681C11.4332 0.114993 11.7108 -5.70621e-09 12.0002 0C12.2897 5.70621e-09 12.5673 0.114993 12.772 0.319681C12.9767 0.52437 13.0917 0.801987 13.0917 1.09146C13.0917 1.38093 12.9767 1.65855 12.772 1.86324L2.63391 12L12.772 22.1368Z" fill="white"/>
</svg>
