<svg width="20" height="20" viewBox="0 0 20 20" fill="none" xmlns="http://www.w3.org/2000/svg">
<path d="M4.21249 2.70469C4.15761 2.64282 4.09099 2.59246 4.01649 2.55652C3.942 2.52059 3.86111 2.4998 3.77853 2.49536C3.69594 2.49091 3.61329 2.50291 3.53537 2.53064C3.45746 2.55837 3.38582 2.6013 3.32461 2.65692C3.2634 2.71254 3.21384 2.77976 3.17881 2.85468C3.14377 2.9296 3.12395 3.01073 3.1205 3.09336C3.11704 3.176 3.13003 3.2585 3.15869 3.33608C3.18736 3.41366 3.23114 3.48478 3.28749 3.54531L4.79062 5.19922C1.95312 6.94062 0.732805 9.625 0.678899 9.74687C0.643362 9.82681 0.625 9.91331 0.625 10.0008C0.625 10.0883 0.643362 10.1748 0.678899 10.2547C0.706243 10.3164 1.36796 11.7836 2.83905 13.2547C4.79921 15.2141 7.27499 16.25 9.99999 16.25C11.4005 16.258 12.7868 15.9696 14.068 15.4039L15.7867 17.2953C15.8416 17.3572 15.9082 17.4075 15.9827 17.4435C16.0572 17.4794 16.1381 17.5002 16.2207 17.5046C16.3033 17.5091 16.3859 17.4971 16.4638 17.4694C16.5417 17.4416 16.6134 17.3987 16.6746 17.3431C16.7358 17.2875 16.7854 17.2202 16.8204 17.1453C16.8554 17.0704 16.8753 16.9893 16.8787 16.9066C16.8822 16.824 16.8692 16.7415 16.8405 16.6639C16.8118 16.5863 16.7681 16.5152 16.7117 16.4547L4.21249 2.70469ZM7.91015 8.62969L11.1656 12.2117C10.6754 12.4696 10.1134 12.5574 9.56783 12.4613C9.02229 12.3652 8.52413 12.0906 8.15157 11.6806C7.77901 11.2707 7.55314 10.7486 7.50945 10.1964C7.46575 9.6442 7.6067 9.09311 7.91015 8.62969ZM9.99999 15C7.5953 15 5.49452 14.1258 3.75546 12.4023C3.04164 11.693 2.43454 10.8837 1.95312 10C2.31952 9.31328 3.48905 7.39141 5.65234 6.14219L7.05859 7.68516C6.51416 8.38242 6.23377 9.24971 6.26697 10.1337C6.30017 11.0177 6.64483 11.8616 7.24002 12.516C7.83521 13.1705 8.64261 13.5935 9.51952 13.7102C10.3964 13.8269 11.2864 13.6299 12.032 13.1539L13.1828 14.4195C12.1672 14.8092 11.0878 15.006 9.99999 15ZM10.4687 7.54453C10.3059 7.51345 10.162 7.41895 10.0689 7.28181C9.97568 7.14468 9.94079 6.97614 9.97187 6.81328C10.0029 6.65042 10.0975 6.50658 10.2346 6.4134C10.3717 6.32021 10.5403 6.28533 10.7031 6.31641C11.4997 6.47083 12.225 6.87863 12.7708 7.47897C13.3167 8.07932 13.6539 8.84003 13.732 9.64766C13.7475 9.81269 13.6967 9.9771 13.5909 10.1047C13.4851 10.2323 13.333 10.3127 13.168 10.3281C13.1484 10.3293 13.1289 10.3293 13.1094 10.3281C12.9532 10.3288 12.8024 10.2709 12.6867 10.166C12.571 10.061 12.4988 9.91648 12.4844 9.76094C12.4318 9.22374 12.2072 8.71788 11.844 8.31855C11.4809 7.91922 10.9985 7.64776 10.4687 7.54453ZM19.3187 10.2547C19.2859 10.3281 18.4945 12.0805 16.7125 13.6766C16.6516 13.7328 16.5801 13.7764 16.5022 13.8048C16.4243 13.8332 16.3415 13.8458 16.2587 13.8419C16.1759 13.8379 16.0947 13.8176 16.0198 13.782C15.9449 13.7463 15.8779 13.6962 15.8226 13.6344C15.7673 13.5726 15.7249 13.5005 15.6977 13.4221C15.6706 13.3438 15.6593 13.2608 15.6645 13.1781C15.6698 13.0953 15.6914 13.0144 15.7282 12.9402C15.765 12.8659 15.8162 12.7996 15.8789 12.7453C16.7532 11.9599 17.4876 11.0315 18.0508 10C17.5683 9.11545 16.9599 8.30569 16.2445 7.59609C14.5055 5.87422 12.4047 5 9.99999 5C9.49332 4.99938 8.98745 5.0404 8.48749 5.12266C8.40619 5.13703 8.32284 5.13516 8.24227 5.11714C8.1617 5.09913 8.08549 5.06532 8.01805 5.01769C7.95062 4.97005 7.89329 4.90953 7.84938 4.83961C7.80547 4.76969 7.77584 4.69177 7.76222 4.61033C7.7486 4.5289 7.75124 4.44558 7.77 4.36517C7.78877 4.28477 7.82327 4.20888 7.87153 4.14189C7.91979 4.0749 7.98085 4.01813 8.05117 3.97487C8.12149 3.93161 8.19969 3.90271 8.28124 3.88984C8.84934 3.79604 9.4242 3.74927 9.99999 3.75C12.725 3.75 15.2008 4.78594 17.1609 6.74609C18.632 8.21719 19.2937 9.68516 19.3211 9.74687C19.3566 9.82681 19.375 9.91331 19.375 10.0008C19.375 10.0883 19.3566 10.1748 19.3211 10.2547H19.3187Z" fill="white"/>
</svg>
