<svg width="320" height="304" viewBox="0 0 320 304" fill="none" xmlns="http://www.w3.org/2000/svg">
<path fill-rule="evenodd" clip-rule="evenodd" d="M208.364 37.5085C207.137 40.7508 205.91 43.9935 204.682 47.2357C203.895 49.3135 203.109 51.3908 202.323 53.4685C202.044 54.2052 201.888 54.9608 201.349 55.4722C200.077 56.6763 197.795 57.4427 196.267 58.2898C195.243 58.8574 194.219 59.425 193.195 59.9926C192.667 60.2856 191.497 60.6533 191.127 61.1394C190.72 61.6749 190.912 62.6586 190.912 63.3992V69.7935V81.8419C196.201 81.182 201.489 80.5225 206.778 79.8627C199.732 87.9761 192.686 96.0891 185.64 104.202C183.904 106.202 181.796 108.126 180.502 110.453C177.748 115.405 175.057 120.392 172.335 125.361C169.801 129.987 167.267 134.612 164.734 139.238L187.528 138.269C193.43 138.019 199.493 138.396 205.179 136.727C209.867 135.351 214.554 133.975 219.241 132.599C219.865 132.416 221.807 132.209 222.249 131.708C222.662 131.239 222.654 129.467 222.771 128.867C224.983 117.518 227.8 105.012 234.257 95.2436C238.887 88.2409 245.134 82.1098 250.855 76.0033C253.088 73.62 255.36 71.2652 257.514 68.8094C258.066 68.1805 258.862 67.4668 259.227 66.7028C259.463 66.2092 259.792 65.2687 259.646 64.8305C259.582 64.6405 258.11 63.9589 257.899 63.8235C256.408 62.8668 254.929 61.8899 253.447 60.9177C249.283 58.1857 245.123 55.4469 240.935 52.7513C237.671 50.6494 234.415 48.4208 230.971 46.6147C227.402 44.7424 223.471 43.4246 219.728 41.9454C215.947 40.4503 212.158 38.9723 208.364 37.5085Z" fill="#F6DBAB"/>
<path fill-rule="evenodd" clip-rule="evenodd" d="M336.715 210.719C334.9 212.427 331.593 214.718 328.979 213.676C327.666 213.153 326.545 212.004 325.349 211.263C323.944 210.392 322.623 209.521 321.432 208.36C319.056 206.044 317.256 202.66 314.45 200.846C313.507 200.237 311.665 200.106 311.011 199.133C310.718 198.696 310.69 198.034 310.744 197.529C310.862 196.442 311.45 196.507 310.467 195.708H311.994C312.023 195.12 311.434 195.071 310.996 195.147C311.2 194.214 311.407 190.563 309.703 192.218C308.226 193.652 308.965 196.031 307.919 197.585C307.119 198.774 304.993 197.811 304.707 196.503C304.578 195.915 305.227 194.997 305.304 194.42C305.474 193.142 304.902 192.037 304.071 191.069C302.249 192.281 303.282 194.789 302.243 196.381C301.304 197.821 299.211 197.149 297.78 196.896C296.065 196.592 294.126 196.899 292.485 196.495C290.007 195.885 290.933 192.982 290.688 191.108C290.425 189.1 288.392 186.315 289.003 184.289C289.659 182.115 293.494 181.645 295.327 181.118C299.517 179.912 305.493 179.68 308.608 176.303C311.085 179.061 313.078 182.218 315.677 184.872C318.483 187.739 321.481 190.386 324.175 193.369C326.98 196.473 329.874 199.517 332.577 202.711C333.756 204.105 334.791 205.606 336.011 206.966C337.095 208.175 338.238 209.287 336.715 210.719ZM212.184 157.094C213.471 156.411 213.635 156.839 213.635 158.246C213.264 157.571 212.896 157.39 212.184 157.094ZM201.268 184.449V181.968C202.509 181.936 201.746 184.058 201.268 184.449ZM200.965 188.143C200.965 187.044 200.935 185.998 201.252 184.93C201.419 186.094 201.737 187.102 200.965 188.143ZM206.301 263.597C207.441 263.704 209.198 262.92 210.156 263.812C211.141 264.73 211.062 267.399 211.296 268.638C211.681 270.686 212.023 272.74 212.347 274.798C212.56 276.147 212.824 277.517 211.296 278.033C209.037 278.795 205.81 277.707 203.456 277.608C198.806 277.413 194.157 277.141 189.503 277.047C184.992 276.956 180.471 277.028 175.98 277.496C173.952 277.708 171.968 278.081 169.96 278.419C168.902 278.598 166.067 279.344 165.111 278.454C163.312 276.778 166.302 272.865 167.588 271.76C169.975 269.709 173.369 268.23 176.362 267.34C177.961 266.863 180.627 265.527 181.887 267.022C182.853 268.169 182.815 269.699 184.2 270.568C187.409 272.581 185.532 266.806 183.526 266.096C184.873 262.95 187.439 267.391 188.504 268.458C188.883 268.838 190.115 270.089 190.65 269.46C191.05 268.989 190.25 267.301 190.102 266.842C189.877 266.144 189.307 265.083 189.471 264.327C189.767 262.958 191.691 262.585 192.843 262.471C194.63 262.295 196.383 262.86 198.15 263.049C200.859 263.339 203.589 263.343 206.301 263.597ZM188.36 134.67C184.833 134.95 181.283 134.412 177.764 134.852C174.435 135.269 171.297 136.489 168.159 137.61C172.825 126.689 178.862 116.746 186.22 107.433C189.884 102.794 193.825 98.1874 197.784 93.7972C199.627 91.7547 201.532 89.7799 203.434 87.7948C205.131 86.0239 206.347 83.0163 208.383 81.6938C210.122 80.5649 213.159 81.3701 215.085 81.4401C217.262 81.5193 219.912 81.7168 222.035 80.9936C223.574 80.4695 223.997 79.0711 222.071 79.0247C219.799 78.9697 217.565 79.206 215.264 78.9935C209.301 78.4437 203.553 77.54 197.542 78.0526C196.165 78.1697 194.352 78.7552 193.001 78.5794C192.029 78.4524 192.668 78.94 191.992 78.1618C191.734 77.8642 191.422 77.1643 191.346 76.7689C190.915 74.5479 192.137 71.3741 192.43 69.138C192.7 67.0686 192.461 64.7941 192.967 62.7789C193.428 60.9451 194.832 60.7004 196.563 60.5045C201.296 59.9681 206.126 59.6827 210.881 59.2786C221.731 58.3563 232.927 56.9649 243.703 59.2442C247.595 60.0671 252.34 61.3397 255.816 63.3774C256.903 64.0143 258 64.7644 257.605 66.0842C257.194 67.4541 255.184 68.9013 254.188 69.8038C246.826 76.4728 239.716 83.2752 234.545 91.8323C227.951 102.744 224.166 114.529 221.946 127.033C221.468 129.723 221.025 131.131 218.252 131.906C215.274 132.737 212.401 133.278 209.314 133.531C202.335 134.103 195.335 134.114 188.36 134.67ZM190.724 62.4065C190.189 66.3787 189.465 70.3421 189.394 74.3456C189.367 75.8577 189.223 76.6153 187.612 76.9526C185.712 77.35 183.781 77.6461 181.873 78.0585C172.663 80.0503 163.628 82.4966 154.617 85.25C145.861 87.9266 137.248 90.9377 128.295 92.9205C124.443 93.7735 119.936 94.3482 116.429 96.2368C112.655 98.269 113.151 101.601 112.813 105.26C112.36 110.15 110.907 114.884 110.396 119.771C110.152 122.106 109.93 124.456 109.966 126.806C109.998 128.809 110.285 131.024 108.936 132.71C106.229 129.098 104.946 124.556 104.412 120.129C104.153 117.978 104.256 115.808 104.181 113.647C104.121 111.906 104.16 109.138 103.024 107.684C100.555 104.526 97.3432 117.184 97.0378 118.536C96.5241 120.811 96.1005 123.106 95.5888 125.381C95.362 126.39 95.0708 130.056 93.7167 130.422C90.9104 131.179 91.5264 123.31 91.482 122.112C91.3931 119.693 91.3328 117.272 91.3896 114.851C91.4308 113.104 91.7696 111.208 91.5685 109.46C91.0746 105.168 88.6563 109.69 87.9764 111.288C86.2586 115.321 85.4815 119.638 83.941 123.735C83.6847 124.417 83.0826 126.712 82.1287 126.754C81.0673 126.801 81.0756 124.432 81.0149 123.739C80.6627 119.726 79.4732 115.741 79.8321 111.686C80.1947 107.591 81.6329 103.382 83.6681 99.8206C87.9709 92.2911 95.7412 87.9678 103.184 84.0297C111.701 79.5235 120.694 75.9634 129.878 73.0631C140.924 69.575 152.265 66.7527 163.675 64.7443C169.48 63.7226 175.375 62.9919 181.239 62.4061C183.3 62.2002 185.362 62.0799 187.396 61.6884C188.164 61.5404 190.935 60.837 190.724 62.4065ZM196.657 49.5518C193.747 49.5747 190.774 48.1668 187.939 47.5849C184.563 46.8914 181.267 45.8879 177.897 45.164C171.299 43.7465 164.697 42.3642 158.105 40.9155C155.243 40.2865 152.368 39.7391 149.517 39.0634C146.467 38.3406 143.172 37.5347 140.051 38.3133C135.319 39.4937 133.32 44.6597 131.583 48.6912C130.356 51.5389 129.394 54.7131 127.481 57.191C126.799 58.0745 125.831 59.1282 124.595 58.842C122.3 58.3108 122.664 55.2795 122.957 53.6039C123.38 51.1723 123.98 48.7692 124.461 46.3487C124.654 45.3718 126.154 38.9779 123.476 39.9679C121.489 40.7021 120.438 45.5384 119.686 47.2658C119.127 48.5495 118.535 49.8249 117.908 51.0769C117.071 52.747 114.683 58.327 112.04 57.6074C108.256 56.5774 111.885 46.6519 112.53 44.5599C112.884 43.4116 116.729 34.7029 113.483 35.4146C112.101 35.7182 110.755 38.2804 110.05 39.3424C108.8 41.2262 107.554 43.1234 106.378 45.0535C105.167 47.0386 104.549 49.2981 103.349 51.2543C102.718 52.2838 101.429 53.6558 100.171 52.7026C98.2095 51.2178 99.372 46.053 99.7155 44.1C100.355 40.469 101.942 36.7466 104.12 33.7782C107.393 29.318 113.568 27.8767 118.761 27.0103C125.464 25.8916 132.26 26.1976 138.991 26.8594C146.561 27.604 154.015 28.4012 161.477 29.9236C168.997 31.4578 176.521 32.9798 183.925 35.0089C187.413 35.9648 190.951 36.8123 194.39 37.9345C198.045 39.1271 201.613 40.6115 205.37 41.4708C204.048 44.7622 202.726 48.0536 201.405 51.3453C200.14 50.0964 198.413 49.5375 196.657 49.5518ZM261.438 58.6215C262.597 57.989 263.878 57.6905 264.3 56.2924C264.674 55.057 264.035 53.6574 263.73 52.4714C262.876 49.1512 262.651 45.7118 263.407 42.3524C264.129 43.4532 266.835 47.6874 268.48 45.124C269.472 43.5779 266.813 41.3537 266.037 40.2667C267.74 39.2178 270.173 36.4026 272.135 38.1003C273.404 39.198 273.941 40.2548 275.65 40.7884C277.725 41.4364 279.678 41.288 281.797 41.1091C283.281 40.984 283.638 40.7864 284.217 41.9264C284.672 42.8226 284.908 43.9317 285.173 44.894C285.697 46.7912 286.91 50.5295 285.474 52.3068C284.216 53.8636 279.335 52.5288 278.657 54.5385C278.287 55.6346 280.052 55.6737 280.726 56.216C281.561 56.8874 282.251 57.9557 282.705 58.9101C283.041 59.6158 283.552 60.782 282.98 61.5036C282.19 62.5019 280.725 61.7446 280.088 61.0191C279.243 60.0552 278.968 58.7375 278.263 57.6877C276.968 55.7616 276.89 57.2939 276.538 58.6769C276.172 60.1138 275.305 60.0148 273.979 60.1993C271.651 60.5235 269.298 60.9807 267.032 61.6033C265.871 61.9224 264.745 62.3289 263.639 62.8039C262.926 63.1095 261.69 64.0353 260.917 64.0441C259.484 64.0603 258.49 61.6682 257.751 60.6703C258.979 59.986 260.204 59.2952 261.438 58.6215ZM338.399 205.089C334.819 200.801 331.72 196.143 328.188 191.818C324.705 187.552 320.676 183.822 316.767 179.958C314.922 178.135 313.155 176.134 311.118 174.518C309.599 173.313 308.43 173.294 306.603 173.828C301.411 175.346 296.124 177.172 291.21 179.437C286.635 181.546 282.467 184.254 277.505 185.43C272.441 186.63 267.174 187.016 261.984 186.718C256.659 186.413 251.637 185.308 246.574 183.683C241.778 182.144 236.778 180.8 232.677 177.75C228.377 174.552 225.055 169.953 221.977 165.627C220.419 163.437 218.872 161.138 217.822 158.656C216.911 156.502 216.316 153.96 214.681 152.204C214.28 152.772 213.781 153.258 213.577 153.924C213.484 154.227 214.03 154.218 213.975 154.458C213.869 154.912 213.264 155.374 212.913 155.62C211.65 156.507 211.643 155.801 211.974 157.46C212.167 158.426 211.802 160.607 210.222 159.894C210.804 160.589 209.88 161.466 209.578 162.038C209.371 161.8 209.112 161.717 208.804 161.789C209.381 162.937 209.04 162.968 208.481 163.879C208.378 164.046 208.016 164.918 208.068 164.844C207.496 165.657 206.835 165.862 206.502 166.874C206.228 167.706 206.298 168.62 205.992 169.451C205.623 168.941 205.254 168.432 204.885 167.923C204.96 168.324 205.111 168.917 205.286 169.28C205.396 169.507 205.869 170.038 205.863 170.161C205.837 170.625 205.258 170.513 205.093 170.913C204.783 171.662 205.231 171.772 205.062 172.504C204.868 173.343 204.349 173.007 204.102 173.722C204.055 173.858 204.42 174.392 204.362 174.685C204.281 175.099 203.905 175.331 203.772 175.699C203.434 176.636 203.557 177.321 203.087 178.219C202.906 178.568 202.641 178.8 202.513 179.196C202.401 179.544 202.642 180.285 202.426 180.597C201.379 182.101 201.527 179.511 201.606 178.868C202.272 173.474 204.409 167.907 206.364 162.865C207.336 160.361 208.282 157.777 209.5 155.378C209.99 154.412 210.556 153.415 211.367 152.676C212.392 151.741 213.846 151.367 214.774 150.323C214.627 150.487 215.78 149.399 215.596 149.757C215.761 149.437 215.473 149.004 215.575 148.694C215.702 148.31 215.943 148.229 216.211 147.893C216.693 147.289 217.265 146.988 216.509 146.218C217.632 145.97 218.169 145.607 218.394 144.406C218.557 143.528 218.227 143.585 218.804 143C219.384 142.412 219.677 142.871 220.042 141.852C220.479 140.633 220.769 138.976 221.031 137.701C221.259 136.587 220.705 134.95 221.645 134.164C222.836 133.168 223.902 133.59 223.689 131.587C223.48 129.636 224.088 128.453 224.699 126.606C225.918 122.919 226.389 119.026 227.458 115.295C229.739 107.332 233.768 100.153 238.101 93.1441C242.105 86.6675 247.702 81.1496 253.107 75.8355C254.587 74.38 256.051 72.9036 257.38 71.308C258.524 69.934 259.047 68.0633 260.148 66.7591C260.816 65.967 262.06 65.6282 262.993 65.2082C264.55 64.5076 266.405 63.5936 268.161 63.7353C267.463 66.0838 267.236 68.8281 269.296 70.5891C271.795 72.7254 274.06 70.506 276.351 69.288C280.527 67.0678 286.499 69.1059 290.141 65.7782C291.008 64.9857 291.25 63.7194 292.151 62.9792C292.813 62.4366 293.754 62.2988 294.499 61.8943C296.762 60.6652 297.86 58.4153 296.979 55.9298C296.174 53.6578 294.923 52.8697 297.708 51.7182C299.969 50.784 300.828 49.3764 299.805 46.8704C298.829 44.4812 297.042 44.2061 295.35 42.6425C293.712 41.1281 295.594 39.3654 296.821 38.2286C298.404 36.762 298.706 35.4403 296.872 33.9152C294.95 32.3184 292.207 32.3742 289.968 33.1639C287.435 34.0565 285.766 35.5405 284.694 37.9452C283.603 40.3934 280.897 39.7102 278.706 39.0278C276.611 38.3754 276.065 36.9678 274.689 35.4522C273.159 33.7663 270.04 35.208 268.235 35.9783C263.79 37.8743 259.372 40.8668 259.196 46.1674C259.09 49.3281 260.43 52.0147 261.126 54.9814C261.763 57.6945 257.396 57.4807 256.64 60.1051C248.571 55.8428 239.586 54.5385 230.567 54.2483C220.982 53.9396 211.258 53.6922 201.754 55.2011C203.96 51.3655 205.125 47.1594 207.044 43.2188C207.597 42.0844 207.835 42.1814 209.054 42.5242C211.396 43.1824 213.721 43.9191 216.058 44.5971C224.597 47.0743 232.969 50.0588 241.225 53.3276C242.028 53.6455 243.819 54.5278 244.522 53.5683C245.334 52.4619 243.457 51.0979 242.697 50.5414C239.372 48.1074 235.252 46.6301 231.529 44.9225C223.388 41.1902 214.374 39.4184 205.881 36.6464C187.544 30.661 168.574 26.1153 149.519 23.1129C144.868 22.3802 140.169 22.2729 135.498 21.7291C131.361 21.2473 127.216 21.2584 123.08 21.756C115.44 22.6755 106.582 24.6594 102.267 31.6387C98.3717 37.9404 95.7713 45.0254 96.7653 52.5003C97.064 54.7455 98.0167 57.4043 100.793 56.8256C102.719 56.4242 103.741 54.7914 104.635 53.1978C105.986 50.7903 107.32 48.3829 108.784 46.0399C109.327 49.553 107.354 53.0074 107.664 56.5861C107.875 59.0146 109.22 62.8514 112.379 62.1638C116.709 61.2217 118.491 54.4708 120.573 51.2321C120.679 53.7266 119.803 56.1852 120.071 58.6852C120.335 61.1548 122.269 63.4863 124.985 63.1479C127.546 62.8288 129.211 60.0901 130.299 58.0282C131.813 55.1588 132.901 52.0823 134.379 49.1939C135.765 46.4864 137.407 43.2632 140.716 42.7545C143.669 42.3001 147.053 43.3518 149.97 43.7857C158.061 44.989 165.989 47.0378 173.992 48.6932C182.573 50.4677 191.356 51.5456 199.672 54.4091C196.748 58.3808 189.096 57.5227 184.74 57.949C178.157 58.5934 171.49 59.0783 164.944 60.0291C158.48 60.968 152.151 62.6349 145.737 63.8449C139.356 65.0487 132.987 66.2544 126.813 68.3072C115.35 72.1186 103.697 76.9423 93.5973 83.5927C88.8982 86.6873 84.724 90.2241 81.8213 95.1086C78.9 100.024 77.4963 105.582 76.9608 111.235C76.6277 114.756 77.1937 117.803 77.8771 121.229C78.3721 123.71 78.5323 127.863 80.5255 129.68C84.3297 133.147 87.4882 119.083 88.1906 117.385C88.6964 120.168 87.8693 135.85 93.9733 134.574C96.6975 134.006 97.3154 130.274 97.7672 128.027C98.5914 123.929 99.3296 119.75 100.739 115.804C101.644 121.12 102.021 126.66 103.97 131.738C105.265 135.11 108.959 141.095 111.534 135.321C113.466 130.991 112.803 126.021 113.035 121.424C113.291 116.33 114.757 111.416 115.276 106.371C115.477 104.417 115.295 102.215 117.263 101.148C118.952 100.233 121.422 99.935 123.267 99.424C128.73 97.9103 134.228 96.519 139.666 94.9131C145.105 93.306 150.469 91.4286 155.836 89.5963C160.969 87.8439 166.21 86.8476 171.405 85.347C174.359 84.4936 177.277 83.601 180.272 82.8885C181.666 82.5572 183.077 82.2991 184.468 81.9559C185.499 81.7018 186.857 80.7427 187.917 80.7597C189.007 80.7775 189.417 81.699 190.668 81.7714C192.015 81.849 193.384 81.5525 194.723 81.45C197.985 81.2002 201.453 80.7965 204.708 81.2477C202.752 83.5634 200.11 85.1641 197.794 87.0823C195.124 89.2946 192.539 91.6835 190.258 94.296C185.668 99.5527 181.33 105.109 177.3 110.804C173.324 116.422 170.123 122.57 167.34 128.851C165.954 131.981 164.607 135.179 163.649 138.469C163.256 139.82 162.935 141.177 162.224 142.406C161.573 143.533 160.654 144.505 161.425 145.866C161.955 145.535 162.431 145.123 162.911 144.725C162.357 148.621 161.161 152.389 160.546 156.272C159.94 160.099 159.965 164.034 160.004 167.898C160.086 175.99 160.689 183.899 162.334 191.837C163.998 199.863 166.135 207.829 168.83 215.571C171.424 223.027 174.027 230.845 177.648 237.871C181.515 245.376 186.116 253.267 191.714 259.619C188.057 261.114 183.404 260.835 179.532 261.437C175.484 262.066 171.983 263.254 168.534 265.489C165.044 267.751 163.15 270.662 162.667 274.786C162.325 277.721 161.306 281.785 165.165 282.556C167.94 283.11 171.043 282.2 173.824 281.974C178.688 281.581 183.56 281.335 188.435 281.123C193.297 280.911 198.161 280.725 203.025 280.574C205.313 280.504 207.602 280.468 209.889 280.386C210.914 280.35 211.536 280.334 212.455 280.629C213.181 280.863 213.128 281.349 213.937 280.749C215.242 279.78 214.974 276.726 214.937 275.383C214.882 273.311 214.685 271.215 214.28 269.182C214.04 267.974 211.122 260.187 213.391 259.859C210.755 256.969 209.702 252.841 208.518 249.219C207.035 244.68 205.733 240.154 204.71 235.486C202.527 225.515 201.562 215.434 201.562 205.232C211.684 211.458 222.393 214.83 234.314 215.206C246.167 215.581 259.188 214.609 270.443 210.674C275.655 208.852 280.323 206.459 284.792 203.234C286.393 202.079 288.109 199.462 290.212 199.507C292.72 199.56 295.53 200.508 298.021 200.913C302.786 201.688 309.004 202.126 313.038 205.067C315.229 206.664 316.799 208.9 318.755 210.741C320.242 212.142 322.209 212.902 323.686 214.302C325.278 215.813 324.646 217.787 327.287 217.91C329.545 218.014 332.02 217.107 333.967 216.043C337.852 213.92 341.989 209.389 338.399 205.089Z" fill="#6C6C6C"/>
<path fill-rule="evenodd" clip-rule="evenodd" d="M301.06 104.117C306.745 108.147 313.266 110.9 319.207 114.529C320.694 115.437 325.327 117.324 325.282 119.009C325.256 119.994 323.863 121.229 323.254 121.912C322.209 123.082 321.227 124.264 320.263 125.501C315.852 131.167 311.697 136.887 306.916 142.269C306.196 143.078 304.028 146.944 303.328 145.024C303.01 144.154 303.272 143.175 302.445 142.364C302.019 141.946 300.374 141.716 300.853 140.819C301.173 140.962 301.492 141.106 301.812 141.249C301.564 140.532 301.582 139.748 301.21 139.07C300.979 138.649 300.527 138.45 300.37 137.977C300.154 137.322 300.521 136.561 300.459 135.886C300.399 135.213 300.049 134.577 299.841 133.942C298.604 130.179 298.16 126.385 297.526 122.501C296.9 118.659 295.923 114.937 295.54 111.052C295.135 106.948 294.639 102.853 293.977 98.7823C295.159 98.9478 296.067 100.229 296.903 100.953C298.216 102.092 299.643 103.112 301.06 104.117ZM296.603 143.845C296.332 143.633 296.12 143.371 295.967 143.062C298.753 141.684 297.072 144.034 296.603 143.845ZM294.909 140.907C293.694 141.241 292.822 141.309 291.885 140.81C291.796 140.763 291.899 140.399 291.738 140.324C291.598 140.259 291.385 140.339 291.265 140.278C290.857 140.071 290.143 140.525 290.074 139.732C291.624 139.259 293.148 138.385 294.785 138.238C297.059 138.034 296.954 140.344 294.909 140.907ZM289.587 136.339C287.93 136.726 286.565 137.629 284.804 137.393C283.151 137.173 281.715 136.317 280.411 135.332C283.673 134.41 287.093 134.244 290.352 133.352C291.413 133.062 292.807 132.297 293.951 132.606C295.221 132.948 295.301 134.136 295.682 135.216C293.649 135.581 291.6 135.87 289.587 136.339ZM279.223 131.754C277.631 132.134 276.003 132.964 274.672 131.531C274.457 131.3 274.269 131.531 274.294 130.819C274.321 130.068 275.004 129.584 275.591 129.32C276.973 128.698 278.909 129.1 280.375 129.009C282.715 128.863 285.097 128.378 287.411 128.004C289.013 127.746 290.669 127.172 292.306 127.285C293.571 127.373 295.096 128.448 293.254 129.233C291.575 129.947 289.059 129.838 287.241 130.147C284.553 130.605 281.875 131.122 279.223 131.754ZM277.667 124.279C277.771 124.384 277.874 124.489 277.977 124.594C277.96 124.59 278.587 124.083 278.753 124.068C279.561 123.998 280.373 124.054 281.181 124.008C283.044 123.903 284.921 123.579 286.75 123.223C288.24 122.932 289.758 122.431 291.292 122.557C292.62 122.665 292.76 122.937 292.847 124.216C289.457 124.216 285.965 124.145 282.634 124.861C280.465 125.327 278.075 126.714 276.988 124.213C277.215 124.235 277.441 124.257 277.667 124.279ZM279.787 118.865C280.627 119.503 282.919 118.441 283.926 118.335C285.02 118.219 286.049 118.099 287.11 117.827C288.05 117.586 291.16 116.38 291.881 117.533C292.986 119.3 288.51 119.624 287.801 119.712C284.825 120.079 281.737 120.404 278.841 121.183C279.156 120.41 279.471 119.638 279.787 118.865ZM283.869 112.864C284.086 113.681 290.817 110.672 290.939 112.859C291.034 114.537 284.28 115.373 283.066 115.225C283.351 114.453 284.107 113.761 283.869 112.864ZM286.129 107.731C286.272 106.084 286.493 106.094 287.817 105.939C288.826 105.82 290.214 105.23 289.951 107.025C289.726 108.563 285.985 109.393 286.129 107.731ZM288.534 102.064C288.853 101.18 289.57 102.37 289.585 102.82C289.625 104.016 288.716 103.758 287.841 103.758C288.084 103.199 288.316 102.633 288.534 102.064ZM299.611 95.4265C299.433 95.2119 298.431 95.13 298.146 95.0259C297.445 94.7694 297.544 94.2227 296.647 94.7619C296.602 94.7167 296.687 94.3114 296.639 94.2928C296.614 94.2833 295.985 94.0466 295.781 93.916C295.288 93.6009 294.844 93.2925 294.391 92.8971C293.909 92.4771 293.427 91.8675 292.877 91.533C292.645 91.3921 292.455 91.1922 292.176 91.1491C291.45 91.0375 291.658 91.5418 291.024 91.6419C290.633 91.7036 290.349 91.2484 289.838 91.4448C289.396 91.6142 289.14 92.2321 288.943 92.5998C288.228 93.9381 287.676 95.3786 286.976 96.7311C283.396 103.648 279.327 110.301 275.859 117.282C274.189 120.645 272.446 124.032 271.27 127.606C270.423 130.183 268.509 133.949 270.155 136.525C271.353 138.397 273.751 139.206 275.664 140.111C278.542 141.473 281.196 143.252 284.106 144.572C287.576 146.147 290.946 147.793 294.329 149.551C295.771 150.301 297.073 151.381 298.511 152.091C299.39 152.525 300.748 151.784 301.035 152.78C302.137 151.447 303.921 152.335 305.196 151.397C305.946 150.846 306.494 149.759 307.12 149.079C308.058 148.06 309.077 147.115 310.034 146.114C313.835 142.138 317.344 137.996 320.801 133.726C324.104 129.647 327.962 125.794 330.752 121.33C331.859 119.558 332.06 117.7 331.329 115.742C330.795 114.314 329.509 112.157 327.672 113.103C328.369 111.949 325.682 110.716 324.867 110.49C324.855 110.487 324.694 111.374 324.467 111.352C324.548 111.36 323.784 109.387 323.448 109.134C322.452 108.382 321.24 107.504 320.152 106.884C319.155 106.316 318.103 106.035 317.137 105.399C315.966 104.629 314.891 103.715 313.716 102.95C312.581 102.211 311.316 101.338 310.062 100.83C308.975 100.39 307.998 100.304 307.02 99.5815C305.809 98.6881 304.753 98.0821 303.357 97.4666C302.149 96.9342 300.475 96.4691 299.611 95.4265Z" fill="#6C6C6C"/>
<path fill-rule="evenodd" clip-rule="evenodd" d="M134.744 202.398C134.966 201.877 135.187 201.356 135.409 200.836C135.684 201.744 135.761 202.195 134.744 202.398ZM135.039 204.802C134.558 204.888 134.747 203.382 134.747 203.119C135.578 203.589 134.89 204.151 135.039 204.802ZM134.289 200.457C134.699 200.215 135.109 199.973 135.519 199.732C134.948 200.788 135.172 200.128 135.408 200.833C134.977 200.957 134.558 200.813 134.289 200.457ZM131.858 208.711C130.321 214.277 125.438 218.667 120.28 220.942C117.317 222.248 114.403 222.575 111.202 222.429C109.968 222.373 108.515 221.973 107.327 222.047C106.413 222.104 106.454 222.144 105.696 222.917C105.361 222.301 105.604 221.869 104.932 221.51C104.093 221.063 103.745 221.584 103.328 222.203C102.784 221.64 102.561 221.346 101.855 221.011C101.878 221.022 101.18 220.995 101.208 221.004C101.082 220.965 100.324 220.478 100.086 220.39C99.111 220.025 97.9837 219.875 97.0841 219.351C96.2972 218.894 95.649 217.61 94.7487 218.597C94.7479 216.948 92.5231 216.265 91.4803 215.401C89.8509 214.052 88.5555 212.055 87.7431 210.123C86.8769 208.063 86.5877 206.087 86.1823 203.964C85.8991 202.481 84.0444 200.336 85.1582 198.839C85.4236 199.467 85.299 200.11 85.7397 200.679C86.1363 199.916 86.3545 199.063 86.5338 198.228C86.6218 197.819 87.1319 196.619 87.074 196.263C86.9562 195.533 86.0518 195.494 86.5532 194.6C87.5932 195.729 88.4325 193.746 87.6467 192.956C87.2588 193.392 87.1164 193.888 86.9375 194.429C85.915 192.369 88.7451 193.033 88.1259 191.173C89.1588 190.975 89.7525 190.715 90.1452 189.696C90.5819 188.563 90.2606 188.316 91.2522 187.567C91.5934 187.31 92.558 186.94 92.7345 186.516C93.076 185.698 92.207 185.455 92.9681 184.689C93.2252 185.139 94.2271 186.03 94.7756 185.182C94.8855 185.013 94.4242 184.893 94.7598 184.503C95.2568 183.927 95.8129 183.362 96.6534 183.483C95.9878 181.823 100.241 181.691 101.33 181.299C102.421 180.907 103.348 180.649 104.505 180.558C105.661 180.467 105.719 180.129 106.698 179.434C106.78 180.428 107.02 180.21 107.728 180.385C107.898 180.094 108.073 180.061 108.251 180.287C108.429 180.456 108.646 180.535 108.903 180.525C109.291 180.546 109.732 180.495 110.14 180.503C111.096 180.522 112.082 180.442 113.02 180.462C113.262 180.422 113.489 180.338 113.7 180.21C113.789 180.377 113.878 180.543 113.966 180.71C114.463 180.772 114.501 181.393 115.112 180.714C115.293 181.578 115.813 181.128 116.362 181.363C116.862 181.577 116.942 181.919 117.404 182.157C117.708 182.403 118.034 182.436 118.382 182.256C118.713 182.501 119.049 182.738 119.391 182.969C120.019 183.324 120.76 183.54 121.423 183.82C121.863 184.002 122.301 184.19 122.736 184.386C122.749 184.909 122.984 185.094 123.441 184.94C123.854 185.285 123.97 185.271 124.37 185.858C125.278 187.189 126.083 188.222 127.229 189.411C132.212 194.581 133.742 201.89 131.858 208.711ZM133.387 186.728C131.138 183.723 127.954 180.28 125.093 178.382C123.643 177.419 121.607 175.691 119.834 175.182C119.414 175.062 118.978 175.054 118.565 174.927C118.246 174.829 118.072 174.502 117.708 174.443C117.453 174.402 117.425 174.971 117.155 174.919C116.589 174.809 116.231 174.249 115.831 173.898C114.973 175.374 114.508 172.892 113.248 174.561C111.748 172.214 108.226 172.727 105.832 172.846C105.122 172.881 104.789 173.133 104.159 173.32C103.573 173.493 103.515 173.449 102.876 173.444C101.282 173.432 99.8678 173.632 98.395 174.33C95.9208 175.503 93.6496 177.33 91.2994 178.744C88.6729 180.323 86.3053 182.334 84.2959 184.645C77.0318 192.999 75.0894 205.194 80.8816 214.879C90.0817 230.261 113.813 231.905 127.261 221.468C137.65 213.404 141.604 197.707 133.387 186.728Z" fill="#6C6C6C"/>
<path fill-rule="evenodd" clip-rule="evenodd" d="M247.26 143.441C247.001 144.056 244.59 143.849 244.537 143.124C244.459 142.041 247.708 142.373 247.26 143.441ZM249.821 143.039C251.187 143.15 253.432 144.076 254.749 143.516C256.759 142.662 254.648 141.351 253.57 140.959C252.473 140.561 250.839 140.773 250.275 139.628C249.851 138.767 250.899 136.363 249.598 136.75C248.233 137.155 248.63 140.598 246.488 139.437C245.466 138.884 245.883 135.51 244.171 137.234C243.703 137.705 243.662 138.571 243.042 138.922C242.409 139.281 241.615 138.907 240.946 138.939C239.177 139.021 238.613 140.673 240.406 141.328C241.07 141.571 243.571 141.867 242.056 142.949C241.101 143.631 238.98 142.2 238.16 143.387C237.033 145.017 240.052 145.054 240.863 145.542C242.237 146.367 241.102 148.296 241.211 149.67C241.379 151.768 242.601 151.33 243.044 149.554C243.421 148.047 242.954 145.878 245.231 146.476C248.938 147.452 243.169 152.148 245.885 153.35C247.616 154.116 247.861 149.974 247.996 149.261C248.494 146.628 249.975 147.242 252.22 147.323C254.843 147.417 255.476 145.481 252.699 144.927C251.813 144.75 250.594 144.974 249.824 144.41C249.369 144.077 248.743 142.952 249.821 143.039Z" fill="#6C6C6C"/>
<path fill-rule="evenodd" clip-rule="evenodd" d="M152.99 229.051C150.868 228.293 147.317 228.457 146.792 231.192C146.572 232.338 147 233.549 147.792 234.381C148.711 235.345 150.175 235.435 150.097 233.755C150.043 232.592 148.934 231.583 150.883 231.348C152.096 231.203 153.89 232.108 153.95 233.445C154.087 236.459 148.859 236.695 146.932 236.174C143.109 235.14 144.148 231.143 146.773 229.319C147.452 228.848 149.398 228.122 149.487 227.143C149.605 225.845 147.996 226.11 147.208 226.281C141.412 227.54 140.148 237.23 146.205 239.057C148.955 239.886 152.828 239.03 154.486 236.544C156.04 234.213 156.061 230.149 152.99 229.051Z" fill="#6C6C6C"/>
<path fill-rule="evenodd" clip-rule="evenodd" d="M76.1386 160.455C74.3267 161.325 72.5148 162.196 70.7033 163.066C70.1044 161.787 69.0926 158.293 67.5734 157.847C65.1142 157.125 66.6802 160.934 67.1046 161.804C67.4532 162.52 68.262 163.628 68.0656 164.481C67.8023 165.629 66.1784 166.036 65.3284 166.629C63.225 168.096 63.2417 171.177 66.2879 169.871C68.0117 169.132 70.146 167.083 71.4673 169.41C72.0773 170.483 73.5227 176.481 75.0323 172.558C75.9664 170.13 71.4704 167.607 73.6869 165.553C74.4005 164.891 75.2358 164.836 75.9486 164.456C77.67 163.538 76.6994 161.842 76.1386 160.455Z" fill="#6C6C6C"/>
<path fill-rule="evenodd" clip-rule="evenodd" d="M319.792 83.9711C320.755 84.1797 321.383 82.3165 321.986 81.8439C322.985 81.0605 324.718 80.9026 325.736 81.6911C327.723 83.2301 327.038 86.5527 329.868 87.4188C332.398 88.193 333.589 84.8684 335.719 84.0407C336.957 83.5594 338.315 83.2443 337.832 81.5173C337.499 80.3231 336.516 80.0163 335.447 80.4751C333.611 81.2628 332.987 84.4718 330.81 84.5292C328.558 84.5886 328.313 81.3479 327.346 79.9363C325.872 77.785 322.841 77.2652 321.119 79.3224C320.599 79.9431 317.959 83.5748 319.792 83.9711Z" fill="#6C6C6C"/>
<path fill-rule="evenodd" clip-rule="evenodd" d="M275.266 47.2335C276.605 48.1479 279.274 48.1162 280.507 46.9821C281.763 45.8283 280.087 45.651 279.064 45.6862C278.278 45.7135 276.805 46.1026 277.254 44.7469C277.651 43.5439 279.838 44.1563 280.021 42.8358C278.375 42.5413 276.562 42.6474 275.345 43.9382C274.465 44.8712 274.013 46.3773 275.266 47.2335Z" fill="#6C6C6C"/>
</svg>
