<svg width="147" height="56" viewBox="0 0 147 56" fill="none" xmlns="http://www.w3.org/2000/svg">
<path d="M52.3622 15.3344C52.1881 14.7914 51.8567 14.3123 51.41 13.9579C50.9633 13.6035 50.4215 13.3898 49.8531 13.3438L41.7112 12.6547L38.535 5.25001C38.3108 4.7309 37.9396 4.28877 37.4671 3.97815C36.9946 3.66753 36.4415 3.50201 35.8761 3.50201C35.3106 3.50201 34.7576 3.66753 34.2851 3.97815C33.8126 4.28877 33.4414 4.7309 33.2172 5.25001L30.0409 12.6569L21.8969 13.3438C21.3314 13.3892 20.792 13.6011 20.3467 13.9527C19.9015 14.3043 19.5704 14.7799 19.3951 15.3195C19.2199 15.859 19.2083 16.4384 19.362 16.9846C19.5156 17.5307 19.8276 18.0191 20.2584 18.3881L26.4184 23.6381L24.5744 31.4541C24.4447 32.0019 24.4793 32.5758 24.6738 33.1041C24.8683 33.6324 25.2142 34.0917 25.6681 34.4247C26.1274 34.762 26.676 34.9564 27.2452 34.9837C27.8144 35.0109 28.379 34.8697 28.8684 34.5778L35.8684 30.4216L42.8684 34.5778C43.3579 34.8697 43.9225 35.0109 44.4917 34.9837C45.0609 34.9564 45.6094 34.762 46.0687 34.4247C46.5229 34.0919 46.8689 33.6326 47.0634 33.1043C47.258 32.5759 47.2924 32.0019 47.1625 31.4541L45.3184 23.6381L51.4762 18.3881C51.9096 18.024 52.2252 17.5394 52.3829 16.9958C52.5406 16.4521 52.5334 15.8739 52.3622 15.3344ZM42.7678 21.2406C42.3647 21.5821 42.0643 22.0287 41.8997 22.5307C41.7352 23.0328 41.7131 23.5706 41.8359 24.0844L43.435 30.8656L37.3581 27.2541C36.9096 26.9867 36.3972 26.8455 35.875 26.8455C35.3528 26.8455 34.8404 26.9867 34.3919 27.2541L28.315 30.8438L29.9141 24.0625C30.0386 23.5489 30.0176 23.0108 29.8534 22.5085C29.6892 22.0062 29.3883 21.5596 28.9844 21.2188L23.6775 16.7081L30.6972 16.1131C31.2182 16.0694 31.7174 15.8847 32.1414 15.5787C32.5653 15.2727 32.8979 14.857 33.1034 14.3763L35.875 7.92751L38.64 14.3763C38.846 14.8567 39.1786 15.2721 39.6025 15.5781C40.0263 15.884 40.5254 16.069 41.0462 16.1131L48.0659 16.7081L42.7678 21.2406ZM18.7381 27.4881L6.48812 39.7381C6.15975 40.0665 5.71438 40.251 5.25 40.251C4.78561 40.251 4.34024 40.0665 4.01187 39.7381C3.6835 39.4098 3.49902 38.9644 3.49902 38.5C3.49902 38.0356 3.6835 37.5903 4.01187 37.2619L16.2619 25.0119C16.5902 24.6835 17.0356 24.499 17.5 24.499C17.9644 24.499 18.4098 24.6835 18.7381 25.0119C19.0665 25.3403 19.251 25.7856 19.251 26.25C19.251 26.7144 19.0665 27.1598 18.7381 27.4881ZM22.2381 39.7381L9.98812 51.9881C9.82553 52.1507 9.6325 52.2797 9.42006 52.3677C9.20763 52.4557 8.97994 52.501 8.75 52.501C8.52006 52.501 8.29237 52.4557 8.07993 52.3677C7.86749 52.2797 7.67446 52.1507 7.51187 51.9881C7.34928 51.8255 7.2203 51.6325 7.13231 51.4201C7.04431 51.2076 6.99902 50.9799 6.99902 50.75C6.99902 50.5201 7.04431 50.2924 7.13231 50.0799C7.2203 49.8675 7.34928 49.6745 7.51187 49.5119L19.7619 37.2619C20.0902 36.9335 20.5356 36.749 21 36.749C21.4644 36.749 21.9098 36.9335 22.2381 37.2619C22.5665 37.5903 22.751 38.0356 22.751 38.5C22.751 38.9644 22.5665 39.4098 22.2381 39.7381ZM37.9881 37.2619C38.1508 37.4244 38.2799 37.6174 38.368 37.8299C38.456 38.0423 38.5014 38.27 38.5014 38.5C38.5014 38.73 38.456 38.9577 38.368 39.1702C38.2799 39.3826 38.1508 39.5756 37.9881 39.7381L25.7381 51.9881C25.5755 52.1507 25.3825 52.2797 25.1701 52.3677C24.9576 52.4557 24.7299 52.501 24.5 52.501C24.2701 52.501 24.0424 52.4557 23.8299 52.3677C23.6175 52.2797 23.4245 52.1507 23.2619 51.9881C23.0993 51.8255 22.9703 51.6325 22.8823 51.4201C22.7943 51.2076 22.749 50.9799 22.749 50.75C22.749 50.5201 22.7943 50.2924 22.8823 50.0799C22.9703 49.8675 23.0993 49.6745 23.2619 49.5119L35.5119 37.2619C35.6744 37.0992 35.8674 36.9701 36.0799 36.882C36.2923 36.794 36.52 36.7486 36.75 36.7486C36.98 36.7486 37.2077 36.794 37.4201 36.882C37.6326 36.9701 37.8256 37.0992 37.9881 37.2619Z" fill="#F6DBAB"/>
<path d="M71.9858 12.5654C71.9176 11.8779 71.625 11.3438 71.1079 10.9631C70.5909 10.5824 69.8892 10.3921 69.0028 10.3921C68.4006 10.3921 67.892 10.4773 67.4773 10.6477C67.0625 10.8125 66.7443 11.0426 66.5227 11.3381C66.3068 11.6335 66.1988 11.9688 66.1988 12.3438C66.1875 12.6563 66.2528 12.929 66.3949 13.1619C66.5426 13.3949 66.7443 13.5966 67 13.7671C67.2557 13.9318 67.5511 14.0767 67.8863 14.2017C68.2216 14.321 68.5795 14.4233 68.9602 14.5085L70.5284 14.8835C71.2898 15.054 71.9886 15.2813 72.625 15.5654C73.2613 15.8494 73.8125 16.1989 74.2784 16.6137C74.7443 17.0284 75.1051 17.5171 75.3608 18.0796C75.6221 18.6421 75.7557 19.2869 75.7613 20.0142C75.7557 21.0824 75.4829 22.0085 74.9432 22.7926C74.4091 23.571 73.6363 24.1762 72.625 24.608C71.6193 25.0341 70.4062 25.2472 68.9858 25.2472C67.5767 25.2472 66.3494 25.0313 65.304 24.5994C64.2642 24.1676 63.4517 23.5284 62.8665 22.6818C62.2869 21.8296 61.9829 20.7756 61.9545 19.5199H65.5256C65.5653 20.1051 65.7329 20.5938 66.0284 20.9858C66.3295 21.3722 66.7301 21.6648 67.2301 21.8637C67.7358 22.0568 68.3068 22.1534 68.9432 22.1534C69.5682 22.1534 70.1108 22.0625 70.571 21.8807C71.0369 21.6989 71.3977 21.446 71.6534 21.1222C71.9091 20.7983 72.0369 20.4262 72.0369 20.0057C72.0369 19.6137 71.9204 19.2841 71.6875 19.0171C71.4602 18.75 71.125 18.5227 70.6818 18.3352C70.2443 18.1477 69.7074 17.9773 69.071 17.8239L67.1704 17.3466C65.6988 16.9887 64.5369 16.429 63.6846 15.6676C62.8324 14.9063 62.4091 13.8807 62.4148 12.5909C62.4091 11.5341 62.6903 10.6108 63.2585 9.82104C63.8324 9.03126 64.6193 8.41479 65.6193 7.97161C66.6193 7.52842 67.7557 7.30683 69.0284 7.30683C70.3238 7.30683 71.4545 7.52842 72.4204 7.97161C73.392 8.41479 74.1477 9.03126 74.6875 9.82104C75.2273 10.6108 75.5057 11.5256 75.5227 12.5654H71.9858Z" fill="#F9F9F9"/>
<path d="M83.6613 25.2557C82.3147 25.2557 81.1556 24.983 80.184 24.4375C79.2181 23.8864 78.4738 23.108 77.9511 22.1023C77.4284 21.0909 77.167 19.8949 77.167 18.5142C77.167 17.1676 77.4284 15.9858 77.9511 14.9688C78.4738 13.9517 79.2096 13.1591 80.1585 12.5909C81.113 12.0227 82.2323 11.7387 83.5164 11.7387C84.3801 11.7387 85.184 11.8779 85.9284 12.1563C86.6784 12.429 87.3318 12.8409 87.8886 13.3921C88.4511 13.9432 88.8886 14.6364 89.2011 15.4716C89.5136 16.3012 89.6698 17.2727 89.6698 18.3864V19.3835H78.6159V17.1335H86.2522C86.2522 16.6108 86.1386 16.1477 85.9113 15.7443C85.684 15.3409 85.3687 15.0256 84.9653 14.7983C84.5676 14.5654 84.1045 14.4489 83.5761 14.4489C83.025 14.4489 82.5363 14.5767 82.1102 14.8324C81.6897 15.0824 81.3602 15.4205 81.1215 15.8466C80.8829 16.2671 80.7607 16.7358 80.7551 17.2529V19.3921C80.7551 20.0398 80.8744 20.5994 81.113 21.071C81.3573 21.5426 81.7011 21.9063 82.1443 22.1619C82.5875 22.4176 83.113 22.5455 83.721 22.5455C84.1244 22.5455 84.4937 22.4887 84.8289 22.375C85.1642 22.2614 85.4511 22.0909 85.6897 21.8637C85.9284 21.6364 86.1102 21.358 86.2352 21.0284L89.5931 21.25C89.4227 22.0568 89.0732 22.7614 88.5448 23.3637C88.0221 23.9602 87.346 24.4262 86.5164 24.7614C85.6926 25.0909 84.7409 25.2557 83.6613 25.2557Z" fill="#F9F9F9"/>
<path d="M91.5592 25V11.9091H95.079V14.1932H95.2154C95.454 13.3807 95.8546 12.7671 96.4171 12.3523C96.9796 11.9318 97.6273 11.7216 98.3603 11.7216C98.5421 11.7216 98.7381 11.733 98.9484 11.7557C99.1586 11.7784 99.3433 11.8097 99.5023 11.8494V15.071C99.3319 15.0199 99.0961 14.9744 98.795 14.9347C98.4938 14.8949 98.2183 14.875 97.9683 14.875C97.4342 14.875 96.9569 14.9915 96.5364 15.2244C96.1217 15.4517 95.7921 15.7699 95.5478 16.179C95.3092 16.5881 95.1898 17.0597 95.1898 17.5938V25H91.5592Z" fill="#F9F9F9"/>
<path d="M113.502 11.9091L108.926 25H104.835L100.258 11.9091H104.093L106.812 21.2756H106.948L109.659 11.9091H113.502Z" fill="#F9F9F9"/>
<path d="M114.88 25V11.9091H118.511V25H114.88ZM116.704 10.2216C116.165 10.2216 115.701 10.0426 115.315 9.68467C114.934 9.32104 114.744 8.88638 114.744 8.3807C114.744 7.8807 114.934 7.45172 115.315 7.09376C115.701 6.73013 116.165 6.54831 116.704 6.54831C117.244 6.54831 117.704 6.73013 118.085 7.09376C118.471 7.45172 118.665 7.8807 118.665 8.3807C118.665 8.88638 118.471 9.32104 118.085 9.68467C117.704 10.0426 117.244 10.2216 116.704 10.2216Z" fill="#F9F9F9"/>
<path d="M126.854 25.2557C125.513 25.2557 124.36 24.9716 123.394 24.4034C122.434 23.8296 121.695 23.0341 121.178 22.0171C120.667 21 120.411 19.8296 120.411 18.5057C120.411 17.1648 120.67 15.9887 121.187 14.9773C121.709 13.9602 122.451 13.1676 123.411 12.5994C124.371 12.0256 125.513 11.7387 126.837 11.7387C127.979 11.7387 128.979 11.946 129.837 12.3608C130.695 12.7756 131.374 13.358 131.874 14.108C132.374 14.858 132.65 15.7387 132.701 16.75H129.275C129.178 16.0966 128.922 15.571 128.508 15.1733C128.099 14.7699 127.562 14.5682 126.897 14.5682C126.334 14.5682 125.843 14.7216 125.422 15.0284C125.008 15.3296 124.684 15.7699 124.451 16.3494C124.218 16.929 124.101 17.6307 124.101 18.4546C124.101 19.2898 124.215 20 124.442 20.5852C124.675 21.1705 125.002 21.6165 125.422 21.9233C125.843 22.2301 126.334 22.3835 126.897 22.3835C127.312 22.3835 127.684 22.2983 128.013 22.1279C128.349 21.9574 128.624 21.7102 128.84 21.3864C129.062 21.0568 129.207 20.6619 129.275 20.2017H132.701C132.644 21.2017 132.371 22.0824 131.883 22.8438C131.4 23.5994 130.732 24.1904 129.88 24.6165C129.028 25.0426 128.019 25.2557 126.854 25.2557Z" fill="#F9F9F9"/>
<path d="M140.511 25.2557C139.165 25.2557 138.006 24.983 137.034 24.4375C136.068 23.8864 135.324 23.108 134.801 22.1023C134.278 21.0909 134.017 19.8949 134.017 18.5142C134.017 17.1676 134.278 15.9858 134.801 14.9688C135.324 13.9517 136.06 13.1591 137.008 12.5909C137.963 12.0227 139.082 11.7387 140.366 11.7387C141.23 11.7387 142.034 11.8779 142.778 12.1563C143.528 12.429 144.182 12.8409 144.739 13.3921C145.301 13.9432 145.739 14.6364 146.051 15.4716C146.364 16.3012 146.52 17.2727 146.52 18.3864V19.3835H135.466V17.1335H143.102C143.102 16.6108 142.989 16.1477 142.761 15.7443C142.534 15.3409 142.219 15.0256 141.815 14.7983C141.418 14.5654 140.955 14.4489 140.426 14.4489C139.875 14.4489 139.386 14.5767 138.96 14.8324C138.54 15.0824 138.21 15.4205 137.972 15.8466C137.733 16.2671 137.611 16.7358 137.605 17.2529V19.3921C137.605 20.0398 137.724 20.5994 137.963 21.071C138.207 21.5426 138.551 21.9063 138.994 22.1619C139.437 22.4176 139.963 22.5455 140.571 22.5455C140.974 22.5455 141.344 22.4887 141.679 22.375C142.014 22.2614 142.301 22.0909 142.54 21.8637C142.778 21.6364 142.96 21.358 143.085 21.0284L146.443 21.25C146.273 22.0568 145.923 22.7614 145.395 23.3637C144.872 23.9602 144.196 24.4262 143.366 24.7614C142.543 25.0909 141.591 25.2557 140.511 25.2557Z" fill="#F9F9F9"/>
<path d="M62.517 49V31.5455H66.2074V38.7472H73.6988V31.5455H77.3807V49H73.6988V41.7898H66.2074V49H62.517Z" fill="#F9F9F9"/>
<path d="M85.841 49.2557C84.4944 49.2557 83.3353 48.983 82.3637 48.4375C81.3978 47.8864 80.6535 47.108 80.1308 46.1023C79.6081 45.0909 79.3467 43.8949 79.3467 42.5142C79.3467 41.1676 79.6081 39.9858 80.1308 38.9688C80.6535 37.9517 81.3893 37.1591 82.3382 36.5909C83.2927 36.0227 84.412 35.7387 85.6961 35.7387C86.5598 35.7387 87.3637 35.8779 88.1081 36.1563C88.8581 36.429 89.5115 36.8409 90.0683 37.3921C90.6308 37.9432 91.0683 38.6364 91.3808 39.4716C91.6933 40.3012 91.8495 41.2727 91.8495 42.3864V43.3835H80.7956V41.1335H88.4319C88.4319 40.6108 88.3183 40.1477 88.091 39.7443C87.8637 39.3409 87.5484 39.0256 87.145 38.7983C86.7473 38.5654 86.2842 38.4489 85.7558 38.4489C85.2046 38.4489 84.716 38.5767 84.2899 38.8324C83.8694 39.0824 83.5399 39.4205 83.3012 39.8466C83.0626 40.2671 82.9404 40.7358 82.9348 41.2529V43.3921C82.9348 44.0398 83.0541 44.5994 83.2927 45.071C83.537 45.5426 83.8808 45.9063 84.324 46.1619C84.7671 46.4176 85.2927 46.5455 85.9007 46.5455C86.3041 46.5455 86.6734 46.4887 87.0086 46.375C87.3438 46.2614 87.6308 46.0909 87.8694 45.8637C88.1081 45.6364 88.2899 45.358 88.4149 45.0284L91.7728 45.25C91.6024 46.0568 91.2529 46.7614 90.7245 47.3637C90.2018 47.9602 89.5257 48.4262 88.6961 48.7614C87.8723 49.0909 86.9206 49.2557 85.841 49.2557Z" fill="#F9F9F9"/>
<path d="M93.7388 49V35.9091H97.2587V38.1932H97.3951C97.6337 37.3807 98.0343 36.7671 98.5968 36.3523C99.1593 35.9318 99.807 35.7216 100.54 35.7216C100.722 35.7216 100.918 35.733 101.128 35.7557C101.338 35.7784 101.523 35.8097 101.682 35.8494V39.071C101.512 39.0199 101.276 38.9744 100.975 38.9347C100.674 38.8949 100.398 38.875 100.148 38.875C99.6138 38.875 99.1366 38.9915 98.7161 39.2244C98.3013 39.4517 97.9718 39.7699 97.7275 40.179C97.4888 40.5881 97.3695 41.0597 97.3695 41.5938V49H93.7388Z" fill="#F9F9F9"/>
<path d="M108.385 49.2557C107.061 49.2557 105.916 48.9744 104.95 48.4119C103.99 47.8438 103.248 47.054 102.725 46.0426C102.203 45.0256 101.941 43.8466 101.941 42.5057C101.941 41.1534 102.203 39.9716 102.725 38.9602C103.248 37.9432 103.99 37.1534 104.95 36.5909C105.916 36.0227 107.061 35.7387 108.385 35.7387C109.708 35.7387 110.85 36.0227 111.811 36.5909C112.777 37.1534 113.521 37.9432 114.044 38.9602C114.566 39.9716 114.828 41.1534 114.828 42.5057C114.828 43.8466 114.566 45.0256 114.044 46.0426C113.521 47.054 112.777 47.8438 111.811 48.4119C110.85 48.9744 109.708 49.2557 108.385 49.2557ZM108.402 46.4432C109.004 46.4432 109.507 46.2727 109.91 45.9318C110.314 45.5852 110.618 45.1137 110.822 44.5171C111.032 43.9205 111.137 43.2415 111.137 42.4801C111.137 41.7188 111.032 41.0398 110.822 40.4432C110.618 39.8466 110.314 39.375 109.91 39.0284C109.507 38.6818 109.004 38.5085 108.402 38.5085C107.794 38.5085 107.282 38.6818 106.868 39.0284C106.458 39.375 106.149 39.8466 105.939 40.4432C105.734 41.0398 105.632 41.7188 105.632 42.4801C105.632 43.2415 105.734 43.9205 105.939 44.5171C106.149 45.1137 106.458 45.5852 106.868 45.9318C107.282 46.2727 107.794 46.4432 108.402 46.4432Z" fill="#F9F9F9"/>
</svg>
