<svg width="34" height="32" viewBox="0 0 34 32" fill="none" xmlns="http://www.w3.org/2000/svg">
<path d="M32.3789 14.5763L25.6972 20.4081L27.6988 29.0906C27.8047 29.5445 27.7745 30.0195 27.6119 30.4563C27.4493 30.8932 27.1616 31.2723 26.7847 31.5465C26.4078 31.8207 25.9584 31.9776 25.4928 31.9978C25.0272 32.0179 24.566 31.9004 24.1668 31.6598L16.5947 27.0666L9.03886 31.6598C8.63969 31.9004 8.17847 32.0179 7.71285 31.9978C7.24723 31.9776 6.79789 31.8207 6.42099 31.5465C6.04409 31.2723 5.75636 30.8932 5.59378 30.4563C5.43119 30.0195 5.40097 29.5445 5.50689 29.0906L7.50548 20.417L0.822283 14.5763C0.468803 14.2714 0.213199 13.8689 0.0875262 13.4193C-0.0381467 12.9697 -0.0282944 12.493 0.115847 12.049C0.259989 11.605 0.532003 11.2134 0.89778 10.9234C1.26356 10.6334 1.70681 10.4578 2.17196 10.4187L10.9812 9.65567L14.4198 1.45321C14.5994 1.02281 14.9022 0.655172 15.2903 0.396578C15.6784 0.137984 16.1343 0 16.6006 0C17.0669 0 17.5228 0.137984 17.9109 0.396578C18.299 0.655172 18.6018 1.02281 18.7814 1.45321L22.2304 9.65567L31.0367 10.4187C31.5018 10.4578 31.9451 10.6334 32.3108 10.9234C32.6766 11.2134 32.9486 11.605 33.0928 12.049C33.2369 12.493 33.2468 12.9697 33.1211 13.4193C32.9954 13.8689 32.7398 14.2714 32.3863 14.5763H32.3789Z" fill="#9A9A9A"/>
</svg>
