<svg width="18" height="16" viewBox="0 0 18 16" fill="none" xmlns="http://www.w3.org/2000/svg">
<path d="M16.7733 7.28813L13.4325 10.204L14.4332 14.5453C14.4862 14.7722 14.4711 15.0098 14.3898 15.2282C14.3085 15.4466 14.1646 15.6362 13.9762 15.7733C13.7877 15.9103 13.5631 15.9888 13.3303 15.9989C13.0975 16.009 12.8668 15.9502 12.6673 15.8299L8.8812 13.5333L5.10329 15.8299C4.90371 15.9502 4.6731 16.009 4.44029 15.9989C4.20748 15.9888 3.98281 15.9103 3.79436 15.7733C3.60591 15.6362 3.46204 15.4466 3.38075 15.2282C3.29946 15.0098 3.28435 14.7722 3.33731 14.5453L4.3366 10.2085L0.995004 7.28813C0.818264 7.13569 0.690462 6.93445 0.627625 6.70965C0.564789 6.48486 0.569715 6.24651 0.641786 6.0245C0.713857 5.8025 0.849864 5.60671 1.03275 5.4617C1.21564 5.31669 1.43727 5.22891 1.66984 5.20936L6.07444 4.82784L7.79376 0.726606C7.88354 0.511407 8.03499 0.327586 8.22902 0.198289C8.42305 0.068992 8.651 0 8.88416 0C9.11732 0 9.34527 0.068992 9.53931 0.198289C9.73334 0.327586 9.88479 0.511407 9.97457 0.726606L11.6991 4.82784L16.1022 5.20936C16.3348 5.22891 16.5564 5.31669 16.7393 5.4617C16.9222 5.60671 17.0582 5.8025 17.1302 6.0245C17.2023 6.24651 17.2072 6.48486 17.1444 6.70965C17.0816 6.93445 16.9538 7.13569 16.777 7.28813H16.7733Z" fill="#EDAC8A"/>
</svg>
